# xmcd
#
# Track frame offsets:
# 150
# 15733
# 30176
# 42136
# 62517
# 80298
# 93454
# 102508
# 110801
# 129303
# 161063
#
# Disc length: 2381 seconds
#
#
# Revision: 0
# Processed by: cddbd v1.5.2PL0 Copyright (c) Steve Scherf et al.
# Submitted via: FreeRIP 2.951 
#
DISCID=81094b0b
DTITLE=Lisa Miller - Morning In The Bowl of Night
DYEAR=2007
DGENRE=Country
TTITLE0=Upside
TTITLE1=Such A Find
TTITLE2=Snowman
TTITLE3=(She's A) Shining Star
TTITLE4=Point Ormond
TTITLE5=Amused and Confused
TTITLE6=Bottle Up My Tears (Prologue)
TTITLE7=Bottle Up My Tears
TTITLE8=Motherless
TTITLE9=Love Will Carry You
TTITLE10=Lucky Dip Roses
EXTD=
EXTT0=
EXTT1=
EXTT2=
EXTT3=
EXTT4=
EXTT5=
EXTT6=
EXTT7=
EXTT8=
EXTT9=
EXTT10=
PLAYORDER=
